<?xml version="1.0" standalone="no"?>
<!DOCTYPE svg PUBLIC "-//W3C//DTD SVG 1.1//EN" "http://www.w3.org/Graphics/SVG/1.1/DTD/svg11.dtd" >
<svg xmlns="http://www.w3.org/2000/svg">
<metadata></metadata>
<defs>
<font id="madame_klararegular" horiz-adv-x="1705" >
<font-face units-per-em="2048" ascent="1536" descent="-512" />
<missing-glyph horiz-adv-x="1024" />
<glyph horiz-adv-x="0" />
<glyph horiz-adv-x="0" />
<glyph unicode="&#xd;" horiz-adv-x="1024" />
<glyph unicode=" "  horiz-adv-x="1024" />
<glyph unicode="&#x09;" horiz-adv-x="1024" />
<glyph unicode="&#xa0;" horiz-adv-x="1024" />
<glyph unicode="!" horiz-adv-x="329" d="M133 29q0 16 11.5 28.5t27.5 12.5t27.5 -12.5t11.5 -28.5q0 -39 -39 -39t-39 39zM145 248v112v435v481v227q0 23 22.5 23t22.5 -23v-112v-433v-483v-227q0 -10 -7 -16.5t-15 -6.5t-15.5 6.5t-7.5 16.5z" />
<glyph unicode="&#x22;" horiz-adv-x="577" />
<glyph unicode="#" />
<glyph unicode="$" />
<glyph unicode="%" />
<glyph unicode="&#x26;" />
<glyph unicode="'" horiz-adv-x="305" />
<glyph unicode="(" horiz-adv-x="622" />
<glyph unicode=")" horiz-adv-x="616" />
<glyph unicode="*" horiz-adv-x="698" />
<glyph unicode="+" horiz-adv-x="1001" />
<glyph unicode="," horiz-adv-x="446" d="M129 -242q25 72 48.5 143.5t45.5 143.5q6 18 26.5 12t14.5 -26q-25 -72 -47 -143.5t-47 -143.5q-4 -10 -12 -13t-15.5 0t-12.5 10t-1 17z" />
<glyph unicode="-" horiz-adv-x="2048" />
<glyph unicode="." horiz-adv-x="329" d="M127 43q0 16 12.5 27.5t28.5 11.5q39 0 39 -39q0 -16 -11.5 -28.5t-27.5 -12.5t-28.5 12.5t-12.5 28.5z" />
<glyph unicode="/" horiz-adv-x="602" />
<glyph unicode="0" horiz-adv-x="909" d="M82 770q2 252 31.5 405.5t80 236.5t117 109.5t142.5 26.5t141 -28.5t114.5 -112.5t77 -237.5t25.5 -403.5q-2 -256 -31.5 -408.5t-80 -235.5t-117 -108.5t-142.5 -25.5t-141.5 27.5t-114.5 110.5t-76.5 236.5t-25.5 407.5zM125 770q-2 -233 20.5 -377.5t64.5 -224.5 t100 -107.5t130 -27.5q70 0 129.5 25.5t102.5 104.5t67.5 222t26.5 381q2 236 -21.5 380t-66.5 224t-101.5 106.5t-125.5 26.5q-68 0 -126.5 -25.5t-101.5 -103.5t-69.5 -222t-28.5 -382z" />
<glyph unicode="1" horiz-adv-x="595" d="M145.5 1516.5q-0.5 19.5 20.5 19.5h156v-55v-297v-494v-463v-188h110q20 0 20.5 -19.5t-20.5 -19.5h-264q-20 0 -20.5 19.5t20.5 19.5h111v295v493v465v205h-113q-20 0 -20.5 19.5z" />
<glyph unicode="2" horiz-adv-x="929" d="M100 33v291q0 176 113 313q25 29 51.5 55.5t57.5 48.5q29 23 60.5 43.5t61.5 42.5q29 18 53.5 38t51.5 38q25 18 46 36.5t44 45.5q47 47 72 98q10 27 19 59t9 66q0 53 -8 78q-2 18 -7 35.5t-13 34.5q-8 18 -18.5 35.5t-26.5 33.5q-35 37 -92.5 51.5t-122.5 14.5 q-66 0 -127.5 -23.5t-90.5 -74.5q-4 -6 -8 -7q-10 -4 -19 1.5t-9 17.5v108q0 20 19.5 20.5t19.5 -20.5v-53q39 37 92 58.5t123 21.5q39 0 78.5 -5t68.5 -15q29 -12 54.5 -27.5t47.5 -38.5q16 -16 29.5 -35.5t24.5 -42.5q8 -23 13 -41t9 -35q8 -33 8 -61v-33 q0 -68 -30.5 -131t-77.5 -117q-23 -25 -45.5 -47t-50.5 -41l-111 -77q-31 -23 -60.5 -42.5t-58.5 -41.5q-29 -20 -55.5 -44t-48.5 -53q-25 -29 -43.5 -59.5t-32.5 -65.5q-31 -72 -31 -163v-283h586v29q0 10 1 21.5t1 19.5q0 18 18.5 18t18.5 -18v-54v-34q0 -18 -19 -19h-30 h-568q-35 0 -41 6t-6 23z" />
<glyph unicode="3" horiz-adv-x="929" d="M113 16v93q0 18 20.5 18t20.5 -18v-72h270q94 0 159.5 23.5t108.5 61.5t65.5 82t33 86t12.5 74.5t2 45.5q0 10 -1 39.5t-11.5 68.5t-34 82t-65.5 80t-107.5 60.5t-161.5 23.5h-55q-23 0 -46.5 1t-39.5 1q-23 0 -22 19.5t20 19.5h67h39q94 0 158.5 22.5t106.5 58.5 t63.5 78t32 80.5t11.5 68.5t1 42q0 18 -4 73.5t-38 116t-111 106.5t-220 46h-217v-72q0 -18 -20.5 -18t-20.5 18v93q0 10 7 14t16 4h235q84 0 147.5 -16.5t108.5 -43t73.5 -61.5t47.5 -69q43 -82 39 -191q0 -74 -23 -145q-20 -59 -67 -116.5t-146 -92.5q-10 -4 -21 -7 t-24 -6l35 -6q57 -10 101 -32.5t75 -52t52.5 -63.5t33.5 -65q31 -74 31 -159q-2 -113 -47 -205q-18 -39 -49 -76t-77 -65.5t-108.5 -46t-144.5 -17.5h-283q-10 0 -19 3t-9 13z" />
<glyph unicode="4" horiz-adv-x="1021" d="M100 496l6 12q29 80 60 158.5t61 158.5q43 117 88 230.5t88 230.5l89 236q2 8 10 11t16 1t12.5 -8t-0.5 -15l-6 -14l-121 -315l-176 -461l-80 -213h377h183v330v256q0 18 19 18t19 -18v-9v-317v-260h109q18 0 18 -21.5t-18 -21.5h-10h-99v-191v-237h111q23 0 23 -18.5 t-23 -18.5h-123q-8 -2 -14 0h-125q-23 0 -23 18.5t23 18.5h113v305v123h-258h-330q-10 0 -16.5 10t-2.5 21z" />
<glyph unicode="5" horiz-adv-x="970" d="M135 18v95q0 20 20.5 20t20.5 -20v-76h246q96 0 160.5 25.5t107.5 64.5t65.5 86t33 90t12.5 77t2 48q0 8 -1 40t-11.5 73t-34 86t-65.5 83t-107.5 62.5t-161.5 24.5h-242q-10 0 -18 3t-8 15v359v342q0 20 20 20h184h381q4 0 5 -1t4 -1q12 -4 12 -16v-91q0 -16 -17.5 -16 t-17.5 16v70h-207h-325v-340v-326l200 -2q90 -2 122 -6t40 -6q115 -29 175.5 -91t86.5 -130q14 -39 22.5 -81t8.5 -87q-2 -59 -13.5 -113.5t-33.5 -101.5q-18 -41 -49 -79t-77 -67.5t-108.5 -48t-144.5 -18.5h-258q-10 0 -19.5 3t-9.5 15z" />
<glyph unicode="6" horiz-adv-x="985" d="M61 768q0 229 33 385t96 248q51 72 123 104.5t183 32.5h4q168 0 239 -80v51q0 20 21.5 20.5t21.5 -20.5v-106q0 -16 -17 -19.5t-24 11.5q-20 39 -60 60.5t-81 31.5t-72 12l-32 2q-84 -4 -155 -29.5t-124 -102.5t-84 -219t-33 -382q0 -59 1 -99t5 -89q6 53 33 91t65 63.5 t82 41t83 22.5t67.5 9t36.5 2q152 0 233.5 -46t118.5 -104q41 -63 47 -149q8 -141 -17.5 -234.5t-67.5 -150.5t-94 -86t-97 -39t-76 -9l-31 1q-102 0 -173.5 35.5t-120 96t-75 139.5t-39.5 165t-16.5 174t-3.5 166zM115 479q6 -53 21.5 -130t55 -149.5t110 -122.5t187.5 -48 q104 -4 185 45q33 20 64.5 54t55 86t35 124t5.5 170q-6 78 -46 135q-35 51 -107.5 92t-205.5 39q-53 0 -114.5 -13t-116 -47t-91 -91.5t-38.5 -143.5z" />
<glyph unicode="7" horiz-adv-x="911" d="M135 1397v119q0 18 19 18q78 0 152.5 1t152.5 1h342q8 0 15 -7t3 -16q-2 -6 -27.5 -72.5t-65.5 -170t-91 -233.5t-104.5 -266t-104.5 -267t-93 -236.5t-68.5 -174t-31.5 -79.5q-8 -20 -28 -12q-18 2 -15 23q2 6 26 65.5t59.5 152.5t83 212.5t97.5 246.5t99 254t92 234.5 t75 189.5t46 119q-70 0 -136.5 -1t-135.5 -1h-324v-100q0 -18 -18.5 -18.5t-18.5 18.5z" />
<glyph unicode="8" horiz-adv-x="821" d="M0 418q0 8 1 36.5t1 30.5t1 11.5t3 18.5t3 17l1 9q0 6 3 22.5t5 20.5q0 2 5.5 22.5t9.5 24.5q0 2 2 8t4 10l12 25q0 4 9.5 19.5t11.5 15.5l6 8q2 2 8 9t6 9q4 2 15.5 13.5l13.5 13.5t12 9t14 9l13 6q4 2 7 4.5t5 2.5l23 10q2 0 16 4t25 8h4q2 0 4 1t4 1q4 0 16 4l-24 6 l-25 7q-8 0 -25 10q-6 2 -18 10q-4 4 -11 7t-7 5q-4 4 -11.5 9.5t-9.5 5.5l-15 15t-14 17q0 2 -8 13.5t-8 13.5q-4 4 -7 13.5t-5 11.5q-2 6 -6 16t-4 12l-15 58q0 4 -2 16t-2 20q0 2 -2 24t-2 26v39q0 117 27.5 188.5t75 109t110.5 50t135 12.5q74 0 136.5 -13.5t108.5 -53 t72.5 -111.5t26.5 -187v-38q0 -2 -1 -9.5t-1 -15.5q-2 -6 -2 -23l-12 -67q-2 -2 -2 -4t-2 -6q-4 -16 -4 -17q0 -2 -6.5 -16t-6.5 -17q-4 -4 -5 -10t-5 -10l-6 -8q-4 -4 -5 -8t-3 -7l-15 -16l-18 -20l-6 -7q-4 -4 -7 -5t-5 -3l-19 -12h-2q-18 -12 -41 -18q-23 -10 -47 -13 q2 0 2 -2q12 -2 21.5 -4t17.5 -4h4q2 -2 7 -3t7 -3q4 0 8.5 -2t6.5 -2q8 -4 15 -7t15 -8q6 0 13 -6q2 -2 13 -9t13 -7q2 -2 7.5 -7t9.5 -7l22 -23q2 -2 9.5 -12t9.5 -15l22 -36l15 -37l4 -13q0 -4 1 -6t1 -4t2 -4q2 -4 6 -22.5t4 -22.5t1 -7t1 -7q0 -8 2 -11q2 -6 3 -17 t1 -15t1 -14.5t1 -12.5v-59q0 -135 -30.5 -217t-85 -125t-126 -56.5t-151.5 -13.5q-82 0 -152.5 15.5t-123 59.5t-82 126t-29.5 217zM43 418q0 -125 24.5 -199t70.5 -113.5t108.5 -52t140.5 -12.5q74 0 138.5 11t112.5 49t74.5 112t26.5 199t-26.5 201.5t-73.5 117.5 t-110.5 55.5t-135.5 14.5t-135 -12.5t-110.5 -52.5t-76 -115.5t-28.5 -202.5zM80 1176q0 -109 21.5 -175.5t61.5 -103.5t97 -49t127 -12q68 0 124 11t98 47t64.5 101.5t22.5 175.5q0 111 -23.5 175.5t-64.5 98.5t-97 44t-120 10q-66 0 -122 -9t-98 -42t-66.5 -97t-24.5 -175 z" />
<glyph unicode="9" horiz-adv-x="974" d="M72 1024q-8 139 15.5 232.5t63 150.5t89 85t91.5 38t71 9l28 -1q96 0 164 -36t113 -95t70.5 -137t38.5 -164t15.5 -173t2.5 -165q0 -451 -121 -627q-47 -72 -117 -104.5t-170 -32.5h-4q-158 0 -227 80v-51q0 -20 -19.5 -20.5t-19.5 20.5v104q0 18 16 20.5t23 -12.5 q25 -41 63.5 -62.5t75.5 -30.5t64 -10l28 -1q70 0 135.5 24.5t115.5 102.5t80.5 220t35.5 380v99t-5 89q-10 -80 -59 -126t-108.5 -69.5t-110.5 -28.5t-64 -5q-72 0 -127 12.5t-95 33t-66.5 47t-42.5 54.5q-37 64 -43 150zM111 1026q2 -74 41 -133q31 -53 98 -92t194 -39 q51 0 108.5 13t107 47t83 90.5t37.5 142.5q-6 51 -19 128t-48 148.5t-102.5 121.5t-180.5 48h-27.5t-63.5 -10t-81 -35.5t-78 -78t-56.5 -137.5t-12.5 -214z" />
<glyph unicode=":" horiz-adv-x="344" d="M131 473q0 16 12.5 28.5t28.5 12.5t27.5 -12.5t11.5 -28.5q0 -39 -39 -39q-16 0 -28.5 11.5t-12.5 27.5zM133 1059q0 39 39 39q16 0 28.5 -11.5t12.5 -27.5t-12.5 -28.5t-28.5 -12.5t-27.5 12.5t-11.5 28.5z" />
<glyph unicode=";" horiz-adv-x="321" d="M80 365l92 286q6 20 26.5 14t14.5 -26q-23 -72 -46 -143.5t-48 -143.5q-8 -20 -26.5 -13t-12.5 26zM164 1042q0 16 11 28.5t28 12.5q16 0 27.5 -12t11.5 -29q0 -39 -39 -38q-39 -1 -39 38z" />
<glyph unicode="&#x3c;" horiz-adv-x="794" />
<glyph unicode="=" horiz-adv-x="1083" />
<glyph unicode="&#x3e;" horiz-adv-x="794" />
<glyph unicode="?" horiz-adv-x="995" d="M98 1110q4 41 9.5 81t21.5 77q35 84 84 135q57 61 127 94q72 35 156 35q88 0 153 -33q68 -27 127 -86q53 -53 86 -125q31 -72 31 -153q0 -154 -76 -248q-37 -45 -76 -76q-20 -16 -40.5 -30.5t-43.5 -30.5q-33 -23 -60.5 -45.5t-51.5 -45.5q-49 -47 -49 -127v-122v-19v-4 v-4v-107q0 -14 -7.5 -20t-15.5 -6t-15 7t-7 19v256q0 88 57 158l27.5 27.5t29.5 23.5t32.5 22.5t35.5 24.5q20 14 38.5 27.5t39.5 30.5q35 25 69 67q29 39 49 95q18 51 19 127q0 76 -27 135q-14 33 -32.5 61.5t-43.5 50.5q-49 49 -112 78q-59 27 -137 27q-74 0 -138 -31 q-68 -35 -112 -84q-23 -25 -41.5 -55.5t-34.5 -65.5t-20.5 -69.5t-8.5 -71.5q0 -12 -7 -17.5t-16 -5.5t-15.5 6.5t-4.5 16.5zM438 35q0 -39 39 -39t39 39t-39 39t-39 -39z" />
<glyph unicode="@" />
<glyph unicode="A" horiz-adv-x="1306" d="M98 19q0 18 19 18h67q2 4 22.5 67.5t52.5 165t73 230.5t83 262t83 262t73.5 232.5t53 169t22.5 73.5h-63q-18 0 -18.5 18.5t18.5 18.5h202q16 0 16.5 -18.5t-16.5 -18.5h-65l17 -63q18 -62 46.5 -163.5t64.5 -230.5t72.5 -265t73.5 -266t66 -234.5t47 -170t20 -69.5h72 q18 -1 18 -19h1q0 -18 -19 -18h-205q-18 0 -18 18.5t18 18.5h84q0 2 -12 48t-33.5 123t-49.5 177t-58 209q-4 10 -5 21.5t-6 21.5h-131h-362q-4 -10 -7 -21.5t-7 -21.5q-33 -106 -64 -203.5t-54.5 -172.5t-38.5 -124t-18 -57h89q18 0 18 -18.5t-18 -18.5h-205q-19 0 -19 19z M434 676h123h346q-37 133 -74.5 273.5t-69.5 257t-52.5 193.5t-22.5 85q0 -2 -24.5 -81t-61.5 -199t-81 -261t-83 -268z" />
<glyph unicode="B" horiz-adv-x="1015" d="M104 1519q0 17 17 17h59.5h66.5t55 -1l22 -1h145q80 0 139.5 -16.5t102.5 -43t70.5 -61.5t43.5 -70q39 -80 39 -190q0 -90 -26 -158q-23 -63 -77 -122.5t-163 -86.5q33 -2 57 -12q2 0 15 -4q70 -23 113.5 -62.5t69.5 -83.5t37 -88t15 -75v-6q2 -6 2 -21v-4v-4v-2v-2v-8 v-2v-2q0 -57 -11 -108.5t-32 -96.5q-18 -39 -47 -76t-72 -65.5t-102 -46t-139 -17.5h-182h-7h-190q-18 0 -18.5 17.5t18.5 17.5h78v1464h-82q-17 0 -17 20zM242 805h227q90 0 151.5 22.5t101.5 57.5t61.5 77t30.5 80.5t10 69.5t1 43t-1 42t-10 69t-29.5 78.5t-60.5 74.5 t-102.5 56.5t-152.5 21.5h-227v-692zM244 35h260q90 0 152.5 24.5t103.5 61.5t62.5 82t31.5 87t12 74.5t2 45.5q0 12 -2 42.5t-12 70.5t-31.5 83t-62.5 79t-103.5 58.5t-152.5 22.5h-260v-731z" />
<glyph unicode="C" horiz-adv-x="1032" d="M145 776q2 250 37 401.5t94.5 234.5t138.5 109.5t169 26.5q66 0 131 -17.5t110 -64.5v52q0 23 20.5 22.5t20.5 -22.5v-105q0 -18 -18.5 -20t-22.5 14q-49 57 -109.5 76.5t-131.5 19.5q-80 0 -151 -24.5t-125 -102.5t-86 -221t-34 -379v-30q0 -210 26 -344 q28 -144 80 -224t123.5 -107.5t155.5 -27.5q78 0 143 19t118 85q4 14 22 12.5t18 -20.5v-114q0 -23 -21.5 -23t-21.5 23v63q-49 -59 -118.5 -73.5t-139.5 -14.5q-90 0 -168.5 26.5t-136.5 109.5q-59 84 -92 236q-31 144 -31 376v28z" />
<glyph unicode="D" horiz-adv-x="1122" d="M84 17.5q0 17.5 16 17.5h72v4v295v491v463v205v6h-72q-16 0 -16 18.5t16 18.5h183q2 0 47 -1t98 -1h141q92 0 172 -27.5t139 -109.5q60 -83 94 -233q32 -142 32 -371v-27q-2 -252 -38 -402.5t-96.5 -231.5t-141.5 -106.5t-173 -25.5h-274h-183q-16 0 -16 17.5zM213 35h70 q2 0 44 -1t95 -1h137q84 0 156.5 27.5t126 107.5t85.5 223.5t34 374.5v28q0 214 -29 350q-31 144 -84 224t-126 106.5t-155 26.5q-41 0 -75.5 -1t-65.5 -1h-143h-70v-6v-16v-295v-492v-463v-192z" />
<glyph unicode="E" horiz-adv-x="991" d="M117 23.5q0 19.5 18 19.5h2h74v2v10v279v489v467v207v2h-72q-18 0 -18 19.5t18 19.5h336h348q20 0 21 -18v-101q0 -20 -20.5 -20t-20.5 20v80h-316h-233q2 0 2 -2v-10v-279v-358v-37v-2h152h335v2v37v43q0 20 19.5 20t19.5 -20v-205q0 -18 -19.5 -18t-19.5 18v43v35v6 h-108h-379v-6v-35v-12v-465v-209l-2 -2h244h321v76q0 20 20.5 20t20.5 -20v-96q0 -18 -20 -19h-363h-342q-18 0 -18 19.5z" />
<glyph unicode="F" horiz-adv-x="888" d="M84 20.5q0 20.5 20 20.5h84v8v279v491v467v209v2h-71q-18 0 -18.5 19.5t18.5 19.5h299h356q18 0 19 -18v-101q0 -20 -19.5 -20t-19.5 20v80h-279h-240v-2v-10v-279v-362v-35v-2h84h373v2v35v45q0 20 19.5 20t19.5 -20v-205q0 -18 -19.5 -18t-19.5 18v41v37v10h-88h-369 v-10v-37v-10v-467v-207h84q20 0 20.5 -20.5t-20.5 -20.5h-213q-20 0 -20 20.5z" />
<glyph unicode="G" horiz-adv-x="1116" d="M145 774q2 250 38 402.5t95.5 235.5t139.5 109.5t170 26.5q45 0 89 -7t83 -25.5t70.5 -50t56.5 -81.5v136q0 18 19.5 18t19.5 -18v-201q0 -16 -14.5 -18.5t-22.5 8.5v-2q-23 57 -56.5 95t-74.5 60.5t-85 31.5t-87 9q-80 0 -152 -25.5t-125 -103.5t-84.5 -221t-34.5 -379 v-31q0 -212 26 -345q28 -144 80 -224t124 -107.5t155 -27.5q82 0 153 24.5t124 99.5t85 211t36 357h-35h-154q-18 0 -18 19.5t18 19.5h215q14 0 17 -8q2 -2 2 -8q-4 -248 -40 -397.5t-95.5 -230.5t-138 -106.5t-169.5 -25.5q-90 0 -168.5 27.5t-137 110.5t-92.5 236 q-32 145 -32 378v28z" />
<glyph unicode="H" horiz-adv-x="1320" d="M135 22q0 19 21 19h84v303v496v463v190h-82q-20 0 -20.5 20.5t20.5 20.5h213q20 0 20 -20.5t-20 -20.5h-88v-6v-303v-336v-35v-6h4h407h332v6v35v455v194h-82q-20 0 -20 19.5t20 19.5h213q19 0 19 -20q0 -19 -19 -19h-88v-10v-301v-496v-463v-186h86q18 0 18.5 -19.5 t-18.5 -19.5h-215q-18 0 -18 19.5t18 19.5h86v2v303v383v35v4h-14h-408h-321v-4v-35v-41v-463v-184h86q18 0 18 -19.5t-18 -19.5h-101q-3 -1 -6.5 -1t-7.5 1h-98q-21 0 -21 20z" />
<glyph unicode="I" horiz-adv-x="421" d="M76 19.5q0 19.5 20 19.5h84v295v493v463v205h-82q-20 0 -20 20.5t20 20.5h213q21 0 21 -21q0 -20 -21 -20h-88v-14v-297v-494v-463v-188h86q18 0 18.5 -19.5t-18.5 -19.5h-213q-20 0 -20 19.5z" />
<glyph unicode="J" horiz-adv-x="899" d="M96 10v117q0 16 17.5 18t21.5 -12q43 -61 99.5 -81.5t121.5 -20.5q70 0 131.5 26.5t105.5 100t69.5 205t25.5 342.5v792h-70q-16 0 -16 18.5t16 18.5h181q16 0 16 -18.5t-16 -18.5h-70v-786q0 -233 -29.5 -375.5t-81 -220.5t-119 -103.5t-143.5 -25.5q-59 0 -118.5 14 t-102.5 74v-64q0 -18 -19.5 -18t-19.5 18z" />
<glyph unicode="K" horiz-adv-x="1271" d="M139 30q0 19 19 19h84v4v295v494v465v194h-84q-18 -1 -18 19l-1 1q0 19 19 19h215q18 0 18 -19.5t-18 -19.5h-88v-6v-297v-493v-84q16 23 60 90t104 159q61 92 130.5 196.5t130 196t103.5 157t53 81.5h-84q-20 0 -20 19.5t20 19.5h213q20 0 20.5 -19.5t-20.5 -19.5h-77 l-17 -26q-49 -82 -101 -157t-106 -153l-90 -135q37 -76 73 -150.5t75 -152.5l219 -448l112 -232v-2h76q19 -1 19 -21v-1q0 -19 -19 -19h-215q-18 0 -18 20.5t18 20.5h94q-12 25 -49 99.5t-85 174t-101 211t-100.5 209t-81 168t-41.5 86.5q-41 -59 -81 -120.5t-81 -120.5 q-35 -51 -68 -100.5t-65 -100.5v-309v-193h88q18 0 18 -20.5t-18 -20.5h-215q-19 0 -19 22z" />
<glyph unicode="L" horiz-adv-x="970" d="M133 1517q0 19 19 19h215q18 0 18 -19.5t-18 -19.5h-86q0 -2 1 -2t1 -2v-10v-275v-491v-465v-209l-2 -2h165h338v76q0 20 20.5 20t20.5 -20v-97q0 -20 -20 -20h-285h-358q-18 0 -18.5 20.5t18.5 20.5h76v2v10v279v489v467v205v4h-86q-19 0 -19 20z" />
<glyph unicode="M" horiz-adv-x="1501" d="M139 22q0 19 19 19h86v297v496v462v201h-72q-18 0 -18 19.5t18 19.5h221q18 0 18.5 -19.5t-18.5 -19.5h-63l18 -61q17 -62 45.5 -162t66.5 -229.5t75.5 -263.5t75.5 -263t68 -231.5t48 -166t21 -67.5l17 63q17 62 46 162.5t65.5 228.5t75.5 262t76 263t67.5 231.5t49 166 t20.5 67.5h-67q-18 0 -18.5 19.5t18.5 19.5h227q20 0 20.5 -19.5t-20.5 -19.5h-68v-14v-297v-496v-463v-184h84q21 -1 21 -21t-21 -20h-213q-20 0 -20 20.5t20 20.5h86v297v496v462v187q-27 -84 -68.5 -222.5t-88.5 -296t-94.5 -319.5t-86 -294t-64.5 -219t-28 -95h64 q18 0 18 -18.5t-18 -18.5h-203q-16 0 -16 18.5t16 18.5h66l-15 49q-14 49 -37.5 130t-54.5 188.5t-66.5 227.5t-71.5 243.5t-70 237.5t-62.5 210t-48.5 162v-66t1 -86t1 -86v-65v-496v-463v-184h84q20 0 20 -20.5t-20 -20.5h-213q-19 0 -19 22z" />
<glyph unicode="N" horiz-adv-x="1228" d="M131 26q0 19 19 19h86v297v496v462v201h-84q-18 0 -18.5 19.5t18.5 19.5h215q18 0 18 -19.5t-18 -19.5h-82q2 -6 31.5 -67.5t76.5 -158.5t107.5 -219t123 -250t122 -251t107.5 -219t78 -157.5t32 -65.5v229v496v462v199h-82q-20 0 -20.5 20.5t20.5 20.5h213 q18 0 18 -20.5t-18 -20.5h-88v-12v-299v-496v-463v-184h86q18 0 18 -20.5t-18 -20.5h-215q-18 0 -18.5 20.5t18.5 20.5h75q-2 4 -31.5 64.5t-76.5 156.5t-106.5 218t-122 249t-123 249t-107.5 218t-75.5 157.5t-30.5 65.5v-235v-496v-463v-184h86q18 0 18 -20.5t-18 -20.5 h-215q-19 0 -19 22z" />
<glyph unicode="O" horiz-adv-x="1079" d="M119 768q2 254 38 408.5t96 238.5t140 110.5t172 26.5t172 -28.5t139 -113.5q60 -86 92 -240q31 -146 31 -377v-29q-2 -258 -37.5 -412.5t-96 -237.5t-140.5 -108.5t-170 -25.5q-92 0 -172 27.5t-139 111.5q-60 85 -94 239q-32 146 -31 381v29zM164 768v-31 q0 -215 26 -350q28 -145 81 -226t125.5 -108.5t158.5 -27.5q84 0 156.5 26.5t126 105.5t84 224t32.5 383v29q0 216 -28 353q-30 146 -84 226t-125.5 107.5t-151.5 27.5q-82 0 -153.5 -25.5t-126 -104.5t-87 -224t-34.5 -385z" />
<glyph unicode="P" horiz-adv-x="999" d="M123 13.5q0 17.5 16 17.5h82v1464h-82q-16 0 -16 18.5t16 18.5h142q10 -2 32 -2h72h102q80 0 139.5 -19.5t102.5 -50t70.5 -70.5t44.5 -81q39 -96 39 -219q0 -127 -39 -220q-18 -41 -46 -80.5t-71 -70.5t-101.5 -49.5t-138.5 -18.5h-227v-620h88q16 0 16.5 -17.5 t-16.5 -17.5h-209q-16 0 -16 17.5zM260 690h227q90 0 151.5 26.5t101.5 66.5t61.5 88.5t31 93.5t10.5 79.5t1 47.5q0 12 -1 47t-10.5 79t-30 93t-60.5 89t-102 66.5t-153 26.5h-227v-803z" />
<glyph unicode="Q" horiz-adv-x="993" d="M53 770q2 254 38 408.5t97.5 238.5t142.5 111.5t173 27.5t173 -29.5t140.5 -114.5t92.5 -240q32 -147 32 -380v-28q-2 -250 -35 -401.5t-90 -237.5q29 -27 59.5 -51t61.5 -51q7 -6 7 -13t-6 -14q-13 -14 -30 0l-12 10l-104 86q-59 -72 -136 -94.5t-165 -22.5 q-92 0 -173 28t-140.5 113t-93.5 240q-32 147 -32 386v28zM98 768v-30q0 -215 27 -352q29 -146 81 -227t126 -110t160 -29q78 0 144 20.5t120 84.5l-150 125q-12 12 2.5 25.5t26.5 0.5l12 -10l133 -110q53 80 84 224t33 384v29q0 220 -29 357q-30 146 -84.5 226t-127 107.5 t-154.5 27.5t-155 -25.5t-127 -105.5t-87 -226t-35 -386z" />
<glyph unicode="R" horiz-adv-x="1187" d="M174 1514q0 18 19 18h194h154q78 0 137 -18.5t102 -47t72 -65.5t45 -76q39 -86 39 -207q0 -106 -31 -194q-12 -37 -33.5 -75t-55.5 -69.5t-80 -56.5t-105 -35l4 -6q49 -92 97 -180t99 -180q41 -72 79 -144t79 -143l2 -2h68q16 0 16 -18.5t-16 -18.5h-199q-16 0 -16 18.5 t16 18.5h84q-49 92 -97 179t-97 177q-41 74 -80 144.5t-78 142.5q-2 2 -2 8q-12 -2 -24.5 -2h-24.5h-228v-649h86q16 0 16.5 -17.5t-16.5 -17.5h-206q-16 0 -16.5 17.5t16.5 17.5h81v1462h-81q-19 0 -19 19zM313 721h228q90 0 151.5 25.5t100 66.5t60 88t31 92t10.5 79t1 46 t-1 45t-10.5 75t-29.5 87t-60 83t-101.5 62.5t-151.5 24.5h-228v-774z" />
<glyph unicode="S" horiz-adv-x="1009" d="M106 1206v33q0 31 9 61q6 33 24 76q18 39 58 76q23 20 49 36.5t57 27.5q33 10 75 15t83 5q76 0 133 -21.5t98 -58.5v53q0 23 20.5 23t20.5 -23v-106q0 -12 -10 -17.5t-21 -1.5l-8 9q-31 49 -97.5 71.5t-135.5 22.5q-70 0 -130.5 -14.5t-99.5 -49.5q-31 -31 -47 -67 q-8 -20 -13 -36.5t-9 -33.5q-8 -25 -8 -78q0 -35 9 -64.5t21 -56.5q12 -29 34 -52l44 -46q27 -25 47.5 -43t48.5 -37q51 -37 111 -73q35 -23 66.5 -44.5t64.5 -43.5q35 -23 62.5 -48.5t54.5 -54.5q119 -125 119 -307q0 -86 -36 -150.5t-98 -111.5q-100 -76 -251 -76 q-53 0 -93.5 8t-71 21.5t-52 29t-35.5 27.5v-61q0 -20 -21.5 -20.5t-21.5 20.5v114q0 16 17 19.5t24 -11.5q12 -20 45.5 -42.5t105.5 -47.5q27 -10 53.5 -11t49.5 -1q53 0 118 16q59 14 107 50q23 16 45 39.5t39 52.5q28 53 28 130v5q0 90 -30 162q-27 70 -76 121 q-25 29 -53.5 51t-59.5 45t-61.5 42t-65.5 42q-29 20 -58.5 38.5t-57.5 37.5q-29 20 -54.5 40.5t-48.5 45.5q-53 53 -85 115.5t-32 127.5z" />
<glyph unicode="T" horiz-adv-x="1202" d="M125 1417v94q0 18 20 19h127h482h297q20 0 20 -19v-100q0 -20 -20.5 -20t-20.5 20v80h-106h-306v-2v-10v-281v-491v-467v-205h87q18 0 18 -20.5t-18 -20.5h-216q-18 0 -18 20.5t18 20.5h86v8v281v489v467v209v2h-135h-276v-74q0 -20 -19.5 -20t-19.5 20z" />
<glyph unicode="U" horiz-adv-x="1230" d="M131 1513q0 19 19 19h212q18 0 18.5 -19.5t-18.5 -19.5h-83v-14v-101.5v-142.5t-1.5 -158t-1.5 -146.5v-111.5v-49v-33q0 -213 24 -348q26 -145 72 -226t109.5 -108.5t139.5 -27.5t140 26.5t111.5 106.5t74 224t26.5 382v727h-86q-20 0 -20.5 19.5t20.5 19.5h211 q20 0 20 -19.5t-20 -19.5h-84v-727q0 -256 -32 -410.5t-85 -237.5t-126 -108.5t-153 -25.5t-149.5 26.5t-121.5 110.5t-81.5 239.5t-29.5 411.5v721h-86q-19 0 -19 20z" />
<glyph unicode="V" horiz-adv-x="1294" d="M88 1516.5q0 19.5 18 19.5h205q18 0 18.5 -19.5t-18.5 -19.5h-86l17 -61q16 -62 41.5 -163.5t59.5 -230.5t68.5 -263t68.5 -264t61.5 -231.5t44 -166t18.5 -66.5l432 1446h-88q-18 0 -18 19.5t18 19.5h205q18 0 18 -19.5t-18 -19.5h-68q-2 -4 -21.5 -67.5t-50 -164 t-70.5 -229.5t-80 -263t-80 -263t-70.5 -231.5t-50 -168t-21.5 -73.5h64q18 0 18 -18.5t-18 -18.5h-203q-18 0 -18.5 18.5t18.5 18.5h65l-16 61q-16 62 -42 161t-60.5 226t-69.5 261.5t-70 264.5t-63.5 234.5t-47 173t-20.5 78.5h-72q-18 0 -18 19.5z" />
<glyph unicode="W" horiz-adv-x="2041" d="M154 1517.5q0 18.5 18 18.5h205q18 0 18 -18.5t-18 -18.5h-84q0 -2 13 -63.5t36 -163t51.5 -230.5t59 -263t59.5 -264t52.5 -231.5t37.5 -166t16 -66.5l16 63q17 62 42.5 163.5t59.5 231.5t69 266t67.5 266t59 231.5t42.5 163.5l15 63h-74h-6q-18 0 -18 18.5t18 18.5h6 h199h8q18 0 18.5 -18.5t-18.5 -18.5h-8h-67l13 -61q13 -62 34.5 -163t50.5 -230.5t58.5 -263.5t57 -264t50 -232.5t37 -166t14.5 -67.5l16 63q17 62 43.5 162.5t60.5 228.5t68.5 262t68.5 264t61.5 232.5t44 167t18.5 68.5h-88q-18 0 -18.5 18.5t18.5 18.5h205 q18 0 18 -18.5t-18 -18.5h-68q-2 -4 -19.5 -67.5t-45 -165t-61.5 -229.5t-70.5 -262t-70.5 -263t-61.5 -232.5t-45 -169t-19.5 -73.5h63q18 0 18.5 -18.5t-18.5 -18.5h-202q-16 0 -16.5 18.5t16.5 18.5h65l-10 46t-26.5 125t-40 181.5t-48 217t-51.5 233t-51.5 228.5 t-46 204t-35.5 160q-23 -84 -57.5 -218.5t-74.5 -286t-79 -307t-72 -281.5t-54.5 -210t-23.5 -92h64q16 0 16 -18.5t-16 -18.5h-203q-18 0 -18 18.5t18 18.5h66l-14 61q-15 62 -37.5 161t-52 226t-60.5 261.5t-60.5 264.5t-54 235.5t-41 174t-18.5 78.5h-72q-18 0 -18 18.5z " />
<glyph unicode="X" horiz-adv-x="1357" d="M74 19.5q0 19.5 20 19.5h80l90 151l225 371l146 240q-29 43 -53.5 87t-53.5 89l-221 362l-92 152q-2 2 -2 4h-86q-18 0 -18 20.5t18 20.5h213q20 0 20 -20.5t-20 -20.5h-80l90 -149q55 -92 111.5 -184.5t113.5 -186.5q23 -35 42.5 -68t41.5 -67q23 41 46.5 78.5 t48.5 78.5l221 363q20 33 38.5 64.5t39.5 64.5h-95q-18 0 -18 20.5t18 20.5h213q20 0 20.5 -20.5t-20.5 -20.5h-71l-99 -164l-225 -371q-23 -39 -46 -76.5t-48 -76.5q41 -66 80 -131.5t80 -130.5l221 -363q23 -35 42 -68.5t40 -68.5h78q20 0 20 -19.5t-20 -19.5h-213 q-18 0 -18.5 19.5t18.5 19.5h88l-80 131l-225 371q-35 57 -68 110.5t-66 108.5l-147 -242l-221 -362q-16 -29 -33.5 -58.5t-36.5 -58.5h86q18 0 18.5 -19.5t-18.5 -19.5h-213q-20 0 -20 19.5z" />
<glyph unicode="Y" horiz-adv-x="1269" d="M78 1514.5q0 19.5 20 19.5h213q20 0 20.5 -19.5t-20.5 -19.5h-82q10 -16 19.5 -33.5t19.5 -34.5q59 -104 115.5 -206.5t116.5 -206.5q33 -57 64.5 -114.5t64.5 -117.5l30 54q59 104 115.5 205.5t116.5 205.5q35 61 67.5 122t67.5 120h-94q-20 0 -20.5 19.5t20.5 19.5h213 q20 0 20 -19.5t-20 -19.5h-72l-47 -84q-59 -104 -115.5 -205.5t-115.5 -206.5l-146 -256v-362v-336h88q20 0 20.5 -20.5t-20.5 -20.5h-213q-18 0 -18 20.5t18 20.5h84v360v338l-45 78q-59 104 -115.5 205.5t-115.5 206.5l-148 264q0 2 -1 2t-1 2h-84q-20 0 -20 19.5z" />
<glyph unicode="Z" horiz-adv-x="1064" d="M141 31q4 8 35 73.5t79 167t108.5 229.5t124 262t124 262t108.5 230.5t79.5 168t36.5 73.5h-314h-313v-74q0 -20 -19.5 -20t-19.5 20v93q0 20 20 20h9h393h278q12 0 17.5 -10t-0.5 -21q-4 -8 -35 -72.5t-79 -167t-108.5 -230.5t-124 -261t-124 -261t-108.5 -230.5 t-79.5 -168t-35.5 -73.5h53h383h245v74q0 18 20.5 18t20.5 -18v-95q0 -20 -20 -20h-35h-379h-321q-12 0 -18 10q-3 6 -3 12q0 4 2 9z" />
<glyph unicode="[" />
<glyph unicode="\" />
<glyph unicode="]" />
<glyph unicode="^" />
<glyph unicode="_" />
<glyph unicode="`" horiz-adv-x="413" />
<glyph unicode="a" horiz-adv-x="1177" d="M0 19.5q0 19.5 18 19.5h70q2 4 22.5 67.5t52.5 164t72.5 229.5t82.5 263t83 263t73 231.5t52.5 168t22.5 73.5h-64q-18 0 -18 18.5t18 18.5h203q18 0 18.5 -18.5t-18.5 -18.5h-65l17 -63q17 -62 46 -163.5t64.5 -231.5t72.5 -265t74 -265t65.5 -233.5t47 -169t20.5 -69.5 h72q18 0 18 -19.5t-18 -19.5h-205q-18 0 -18 19.5t18 19.5h84q0 2 -12.5 48t-34 123t-49 176t-58.5 208q-4 10 -5 21.5t-5 21.5h-129h-364q-4 -10 -7.5 -21.5t-7.5 -21.5q-33 -104 -62.5 -201.5t-54 -173.5t-40 -124t-17.5 -56h88q18 0 18.5 -19.5t-18.5 -19.5h-205 q-18 0 -18 19.5zM336 676h123h348q-37 133 -75 273.5t-69.5 257t-53 194.5t-23.5 84q0 -2 -24.5 -81t-61.5 -199t-81 -261t-83 -268z" />
<glyph unicode="b" horiz-adv-x="1015" d="M104 1519q0 17 17 17h59.5h66.5t55 -1l22 -1h145q80 0 139.5 -16.5t102.5 -43t70.5 -61.5t43.5 -70q39 -80 39 -190q0 -90 -26 -158q-23 -63 -77 -122.5t-163 -86.5q33 -2 57 -12q2 0 15 -4q70 -23 113.5 -62.5t69.5 -83.5t37 -88t15 -75v-6q2 -6 2 -21v-4v-4v-2v-2v-8 v-2v-2q0 -57 -11 -108.5t-32 -96.5q-18 -39 -47 -76t-72 -65.5t-102 -46t-139 -17.5h-182h-7h-190q-18 0 -18.5 17.5t18.5 17.5h78v1464h-82q-17 0 -17 20zM242 805h227q90 0 151.5 22.5t101.5 57.5t61.5 77t30.5 80.5t10 69.5t1 43t-1 42t-10 69t-29.5 78.5t-60.5 74.5 t-102.5 56.5t-152.5 21.5h-227v-692zM244 35h260q90 0 152.5 24.5t103.5 61.5t62.5 82t31.5 87t12 74.5t2 45.5q0 12 -2 42.5t-12 70.5t-31.5 83t-62.5 79t-103.5 58.5t-152.5 22.5h-260v-731z" />
<glyph unicode="c" horiz-adv-x="1032" d="M145 776q2 250 37 401.5t94.5 234.5t138.5 109.5t169 26.5q66 0 131 -17.5t110 -64.5v52q0 23 20.5 22.5t20.5 -22.5v-105q0 -18 -18.5 -20t-22.5 14q-49 57 -109.5 76.5t-131.5 19.5q-80 0 -151 -24.5t-125 -102.5t-86 -221t-34 -379v-30q0 -210 26 -344 q28 -144 80 -224t123.5 -107.5t155.5 -27.5q78 0 143 19t118 85q4 14 22 12.5t18 -20.5v-114q0 -23 -21.5 -23t-21.5 23v63q-49 -59 -118.5 -73.5t-139.5 -14.5q-90 0 -168.5 26.5t-136.5 109.5q-59 84 -92 236q-31 144 -31 376v28z" />
<glyph unicode="d" horiz-adv-x="1122" d="M84 17.5q0 17.5 16 17.5h72v4v295v491v463v205v6h-72q-16 0 -16 18.5t16 18.5h183q2 0 47 -1t98 -1h141q92 0 172 -27.5t139 -109.5q60 -83 94 -233q32 -142 32 -371v-27q-2 -252 -38 -402.5t-96.5 -231.5t-141.5 -106.5t-173 -25.5h-274h-183q-16 0 -16 17.5zM213 35h70 q2 0 44 -1t95 -1h137q84 0 156.5 27.5t126 107.5t85.5 223.5t34 374.5v28q0 214 -29 350q-31 144 -84 224t-126 106.5t-155 26.5q-41 0 -75.5 -1t-65.5 -1h-143h-70v-6v-16v-295v-492v-463v-192z" />
<glyph unicode="e" horiz-adv-x="991" d="M117 23.5q0 19.5 18 19.5h2h74v2v10v279v489v467v207v2h-72q-18 0 -18 19.5t18 19.5h336h348q20 0 21 -18v-101q0 -20 -20.5 -20t-20.5 20v80h-316h-233q2 0 2 -2v-10v-279v-358v-37v-2h152h335v2v37v43q0 20 19.5 20t19.5 -20v-205q0 -18 -19.5 -18t-19.5 18v43v35v6 h-108h-379v-6v-35v-12v-465v-209l-2 -2h244h321v76q0 20 20.5 20t20.5 -20v-96q0 -18 -20 -19h-363h-342q-18 0 -18 19.5z" />
<glyph unicode="f" horiz-adv-x="888" d="M84 20.5q0 20.5 20 20.5h84v8v279v491v467v209v2h-71q-18 0 -18.5 19.5t18.5 19.5h299h356q18 0 19 -18v-101q0 -20 -19.5 -20t-19.5 20v80h-279h-240v-2v-10v-279v-362v-35v-2h84h373v2v35v45q0 20 19.5 20t19.5 -20v-205q0 -18 -19.5 -18t-19.5 18v41v37v10h-88h-369 v-10v-37v-10v-467v-207h84q20 0 20.5 -20.5t-20.5 -20.5h-213q-20 0 -20 20.5z" />
<glyph unicode="g" horiz-adv-x="1116" d="M145 774q2 250 38 402.5t95.5 235.5t139.5 109.5t170 26.5q45 0 89 -7t83 -25.5t70.5 -50t56.5 -81.5v136q0 18 19.5 18t19.5 -18v-201q0 -16 -14.5 -18.5t-22.5 8.5v-2q-23 57 -56.5 95t-74.5 60.5t-85 31.5t-87 9q-80 0 -152 -25.5t-125 -103.5t-84.5 -221t-34.5 -379 v-31q0 -212 26 -345q28 -144 80 -224t124 -107.5t155 -27.5q82 0 153 24.5t124 99.5t85 211t36 357h-35h-154q-18 0 -18 19.5t18 19.5h215q14 0 17 -8q2 -2 2 -8q-4 -248 -40 -397.5t-95.5 -230.5t-138 -106.5t-169.5 -25.5q-90 0 -168.5 27.5t-137 110.5t-92.5 236 q-32 145 -32 378v28z" />
<glyph unicode="h" horiz-adv-x="1320" d="M135 22q0 19 21 19h84v303v496v463v190h-82q-20 0 -20.5 20.5t20.5 20.5h213q20 0 20 -20.5t-20 -20.5h-88v-6v-303v-336v-35v-6h4h407h332v6v35v455v194h-82q-20 0 -20 19.5t20 19.5h213q19 0 19 -20q0 -19 -19 -19h-88v-10v-301v-496v-463v-186h86q18 0 18.5 -19.5 t-18.5 -19.5h-215q-18 0 -18 19.5t18 19.5h86v2v303v383v35v4h-14h-408h-321v-4v-35v-41v-463v-184h86q18 0 18 -19.5t-18 -19.5h-101q-3 -1 -6.5 -1t-7.5 1h-98q-21 0 -21 20z" />
<glyph unicode="i" horiz-adv-x="421" d="M76 19.5q0 19.5 20 19.5h84v295v493v463v205h-82q-20 0 -20 20.5t20 20.5h213q21 0 21 -21q0 -20 -21 -20h-88v-14v-297v-494v-463v-188h86q18 0 18.5 -19.5t-18.5 -19.5h-213q-20 0 -20 19.5z" />
<glyph unicode="j" horiz-adv-x="899" d="M96 10v117q0 16 17.5 18t21.5 -12q43 -61 99.5 -81.5t121.5 -20.5q70 0 131.5 26.5t105.5 100t69.5 205t25.5 342.5v792h-70q-16 0 -16 18.5t16 18.5h181q16 0 16 -18.5t-16 -18.5h-70v-786q0 -233 -29.5 -375.5t-81 -220.5t-119 -103.5t-143.5 -25.5q-59 0 -118.5 14 t-102.5 74v-64q0 -18 -19.5 -18t-19.5 18z" />
<glyph unicode="k" horiz-adv-x="1271" d="M139 30q0 19 19 19h84v4v295v494v465v194h-84q-18 -1 -18 19l-1 1q0 19 19 19h215q18 0 18 -19.5t-18 -19.5h-88v-6v-297v-493v-84q16 23 60 90t104 159q61 92 130.5 196.5t130 196t103.5 157t53 81.5h-84q-20 0 -20 19.5t20 19.5h213q20 0 20.5 -19.5t-20.5 -19.5h-77 l-17 -26q-49 -82 -101 -157t-106 -153l-90 -135q37 -76 73 -150.5t75 -152.5l219 -448l112 -232v-2h76q19 -1 19 -21v-1q0 -19 -19 -19h-215q-18 0 -18 20.5t18 20.5h94q-12 25 -49 99.5t-85 174t-101 211t-100.5 209t-81 168t-41.5 86.5q-41 -59 -81 -120.5t-81 -120.5 q-35 -51 -68 -100.5t-65 -100.5v-309v-193h88q18 0 18 -20.5t-18 -20.5h-215q-19 0 -19 22z" />
<glyph unicode="l" horiz-adv-x="970" d="M133 1517q0 19 19 19h215q18 0 18 -19.5t-18 -19.5h-86q0 -2 1 -2t1 -2v-10v-275v-491v-465v-209l-2 -2h165h338v76q0 20 20.5 20t20.5 -20v-97q0 -20 -20 -20h-285h-358q-18 0 -18.5 20.5t18.5 20.5h76v2v10v279v489v467v205v4h-86q-19 0 -19 20z" />
<glyph unicode="m" horiz-adv-x="1501" d="M139 22q0 19 19 19h86v297v496v462v201h-72q-18 0 -18 19.5t18 19.5h221q18 0 18.5 -19.5t-18.5 -19.5h-63l18 -61q17 -62 45.5 -162t66.5 -229.5t75.5 -263.5t75.5 -263t68 -231.5t48 -166t21 -67.5l17 63q17 62 46 162.5t65.5 228.5t75.5 262t76 263t67.5 231.5t49 166 t20.5 67.5h-67q-18 0 -18.5 19.5t18.5 19.5h227q20 0 20.5 -19.5t-20.5 -19.5h-68v-14v-297v-496v-463v-184h84q21 -1 21 -21t-21 -20h-213q-20 0 -20 20.5t20 20.5h86v297v496v462v187q-27 -84 -68.5 -222.5t-88.5 -296t-94.5 -319.5t-86 -294t-64.5 -219t-28 -95h64 q18 0 18 -18.5t-18 -18.5h-203q-16 0 -16 18.5t16 18.5h66l-15 49q-14 49 -37.5 130t-54.5 188.5t-66.5 227.5t-71.5 243.5t-70 237.5t-62.5 210t-48.5 162v-66t1 -86t1 -86v-65v-496v-463v-184h84q20 0 20 -20.5t-20 -20.5h-213q-19 0 -19 22z" />
<glyph unicode="n" horiz-adv-x="1228" d="M131 26q0 19 19 19h86v297v496v462v201h-84q-18 0 -18.5 19.5t18.5 19.5h215q18 0 18 -19.5t-18 -19.5h-82q2 -6 31.5 -67.5t76.5 -158.5t107.5 -219t123 -250t122 -251t107.5 -219t78 -157.5t32 -65.5v229v496v462v199h-82q-20 0 -20.5 20.5t20.5 20.5h213 q18 0 18 -20.5t-18 -20.5h-88v-12v-299v-496v-463v-184h86q18 0 18 -20.5t-18 -20.5h-215q-18 0 -18.5 20.5t18.5 20.5h75q-2 4 -31.5 64.5t-76.5 156.5t-106.5 218t-122 249t-123 249t-107.5 218t-75.5 157.5t-30.5 65.5v-235v-496v-463v-184h86q18 0 18 -20.5t-18 -20.5 h-215q-19 0 -19 22z" />
<glyph unicode="o" horiz-adv-x="1079" d="M119 768q2 254 38 408.5t96 238.5t140 110.5t172 26.5t172 -28.5t139 -113.5q60 -86 92 -240q31 -146 31 -377v-29q-2 -258 -37.5 -412.5t-96 -237.5t-140.5 -108.5t-170 -25.5q-92 0 -172 27.5t-139 111.5q-60 85 -94 239q-32 146 -31 381v29zM164 768v-31 q0 -215 26 -350q28 -145 81 -226t125.5 -108.5t158.5 -27.5q84 0 156.5 26.5t126 105.5t84 224t32.5 383v29q0 216 -28 353q-30 146 -84 226t-125.5 107.5t-151.5 27.5q-82 0 -153.5 -25.5t-126 -104.5t-87 -224t-34.5 -385z" />
<glyph unicode="p" horiz-adv-x="999" d="M123 13.5q0 17.5 16 17.5h82v1464h-82q-16 0 -16 18.5t16 18.5h142q10 -2 32 -2h72h102q80 0 139.5 -19.5t102.5 -50t70.5 -70.5t44.5 -81q39 -96 39 -219q0 -127 -39 -220q-18 -41 -46 -80.5t-71 -70.5t-101.5 -49.5t-138.5 -18.5h-227v-620h88q16 0 16.5 -17.5 t-16.5 -17.5h-209q-16 0 -16 17.5zM260 690h227q90 0 151.5 26.5t101.5 66.5t61.5 88.5t31 93.5t10.5 79.5t1 47.5q0 12 -1 47t-10.5 79t-30 93t-60.5 89t-102 66.5t-153 26.5h-227v-803z" />
<glyph unicode="q" horiz-adv-x="993" d="M53 770q2 254 38 408.5t97.5 238.5t142.5 111.5t173 27.5t173 -29.5t140.5 -114.5t92.5 -240q32 -147 32 -380v-28q-2 -250 -35 -401.5t-90 -237.5q29 -27 59.5 -51t61.5 -51q7 -6 7 -13t-6 -14q-13 -14 -30 0l-12 10l-104 86q-59 -72 -136 -94.5t-165 -22.5 q-92 0 -173 28t-140.5 113t-93.5 240q-32 147 -32 386v28zM98 768v-30q0 -215 27 -352q29 -146 81 -227t126 -110t160 -29q78 0 144 20.5t120 84.5l-150 125q-12 12 2.5 25.5t26.5 0.5l12 -10l133 -110q53 80 84 224t33 384v29q0 220 -29 357q-30 146 -84.5 226t-127 107.5 t-154.5 27.5t-155 -25.5t-127 -105.5t-87 -226t-35 -386z" />
<glyph unicode="r" horiz-adv-x="1187" d="M174 1514q0 18 19 18h194h154q78 0 137 -18.5t102 -47t72 -65.5t45 -76q39 -86 39 -207q0 -106 -31 -194q-12 -37 -33.5 -75t-55.5 -69.5t-80 -56.5t-105 -35l4 -6q49 -92 97 -180t99 -180q41 -72 79 -144t79 -143l2 -2h68q16 0 16 -18.5t-16 -18.5h-199q-16 0 -16 18.5 t16 18.5h84q-49 92 -97 179t-97 177q-41 74 -80 144.5t-78 142.5q-2 2 -2 8q-12 -2 -24.5 -2h-24.5h-228v-649h86q16 0 16.5 -17.5t-16.5 -17.5h-206q-16 0 -16.5 17.5t16.5 17.5h81v1462h-81q-19 0 -19 19zM313 721h228q90 0 151.5 25.5t100 66.5t60 88t31 92t10.5 79t1 46 t-1 45t-10.5 75t-29.5 87t-60 83t-101.5 62.5t-151.5 24.5h-228v-774z" />
<glyph unicode="s" horiz-adv-x="1009" d="M106 1206v33q0 31 9 61q6 33 24 76q18 39 58 76q23 20 49 36.5t57 27.5q33 10 75 15t83 5q76 0 133 -21.5t98 -58.5v53q0 23 20.5 23t20.5 -23v-106q0 -12 -10 -17.5t-21 -1.5l-8 9q-31 49 -97.5 71.5t-135.5 22.5q-70 0 -130.5 -14.5t-99.5 -49.5q-31 -31 -47 -67 q-8 -20 -13 -36.5t-9 -33.5q-8 -25 -8 -78q0 -35 9 -64.5t21 -56.5q12 -29 34 -52l44 -46q27 -25 47.5 -43t48.5 -37q51 -37 111 -73q35 -23 66.5 -44.5t64.5 -43.5q35 -23 62.5 -48.5t54.5 -54.5q119 -125 119 -307q0 -86 -36 -150.5t-98 -111.5q-100 -76 -251 -76 q-53 0 -93.5 8t-71 21.5t-52 29t-35.5 27.5v-61q0 -20 -21.5 -20.5t-21.5 20.5v114q0 16 17 19.5t24 -11.5q12 -20 45.5 -42.5t105.5 -47.5q27 -10 53.5 -11t49.5 -1q53 0 118 16q59 14 107 50q23 16 45 39.5t39 52.5q28 53 28 130v5q0 90 -30 162q-27 70 -76 121 q-25 29 -53.5 51t-59.5 45t-61.5 42t-65.5 42q-29 20 -58.5 38.5t-57.5 37.5q-29 20 -54.5 40.5t-48.5 45.5q-53 53 -85 115.5t-32 127.5z" />
<glyph unicode="t" horiz-adv-x="1202" d="M125 1417v94q0 18 20 19h127h482h297q20 0 20 -19v-100q0 -20 -20.5 -20t-20.5 20v80h-106h-306v-2v-10v-281v-491v-467v-205h87q18 0 18 -20.5t-18 -20.5h-216q-18 0 -18 20.5t18 20.5h86v8v281v489v467v209v2h-135h-276v-74q0 -20 -19.5 -20t-19.5 20z" />
<glyph unicode="u" horiz-adv-x="1230" d="M131 1513q0 19 19 19h212q18 0 18.5 -19.5t-18.5 -19.5h-83v-14v-101.5v-142.5t-1.5 -158t-1.5 -146.5v-111.5v-49v-33q0 -213 24 -348q26 -145 72 -226t109.5 -108.5t139.5 -27.5t140 26.5t111.5 106.5t74 224t26.5 382v727h-86q-20 0 -20.5 19.5t20.5 19.5h211 q20 0 20 -19.5t-20 -19.5h-84v-727q0 -256 -32 -410.5t-85 -237.5t-126 -108.5t-153 -25.5t-149.5 26.5t-121.5 110.5t-81.5 239.5t-29.5 411.5v721h-86q-19 0 -19 20z" />
<glyph unicode="v" horiz-adv-x="1294" d="M88 1516.5q0 19.5 18 19.5h205q18 0 18.5 -19.5t-18.5 -19.5h-86l17 -61q16 -62 41.5 -163.5t59.5 -230.5t68.5 -263t68.5 -264t61.5 -231.5t44 -166t18.5 -66.5l432 1446h-88q-18 0 -18 19.5t18 19.5h205q18 0 18 -19.5t-18 -19.5h-68q-2 -4 -21.5 -67.5t-50 -164 t-70.5 -229.5t-80 -263t-80 -263t-70.5 -231.5t-50 -168t-21.5 -73.5h64q18 0 18 -18.5t-18 -18.5h-203q-18 0 -18.5 18.5t18.5 18.5h65l-16 61q-16 62 -42 161t-60.5 226t-69.5 261.5t-70 264.5t-63.5 234.5t-47 173t-20.5 78.5h-72q-18 0 -18 19.5z" />
<glyph unicode="w" horiz-adv-x="2041" d="M154 1517.5q0 18.5 18 18.5h205q18 0 18 -18.5t-18 -18.5h-84q0 -2 13 -63.5t36 -163t51.5 -230.5t59 -263t59.5 -264t52.5 -231.5t37.5 -166t16 -66.5l16 63q17 62 42.5 163.5t59.5 231.5t69 266t67.5 266t59 231.5t42.5 163.5l15 63h-74h-6q-18 0 -18 18.5t18 18.5h6 h199h8q18 0 18.5 -18.5t-18.5 -18.5h-8h-67l13 -61q13 -62 34.5 -163t50.5 -230.5t58.5 -263.5t57 -264t50 -232.5t37 -166t14.5 -67.5l16 63q17 62 43.5 162.5t60.5 228.5t68.5 262t68.5 264t61.5 232.5t44 167t18.5 68.5h-88q-18 0 -18.5 18.5t18.5 18.5h205 q18 0 18 -18.5t-18 -18.5h-68q-2 -4 -19.5 -67.5t-45 -165t-61.5 -229.5t-70.5 -262t-70.5 -263t-61.5 -232.5t-45 -169t-19.5 -73.5h63q18 0 18.5 -18.5t-18.5 -18.5h-202q-16 0 -16.5 18.5t16.5 18.5h65l-10 46t-26.5 125t-40 181.5t-48 217t-51.5 233t-51.5 228.5 t-46 204t-35.5 160q-23 -84 -57.5 -218.5t-74.5 -286t-79 -307t-72 -281.5t-54.5 -210t-23.5 -92h64q16 0 16 -18.5t-16 -18.5h-203q-18 0 -18 18.5t18 18.5h66l-14 61q-15 62 -37.5 161t-52 226t-60.5 261.5t-60.5 264.5t-54 235.5t-41 174t-18.5 78.5h-72q-18 0 -18 18.5z " />
<glyph unicode="x" horiz-adv-x="1357" d="M74 19.5q0 19.5 20 19.5h80l90 151l225 371l146 240q-29 43 -53.5 87t-53.5 89l-221 362l-92 152q-2 2 -2 4h-86q-18 0 -18 20.5t18 20.5h213q20 0 20 -20.5t-20 -20.5h-80l90 -149q55 -92 111.5 -184.5t113.5 -186.5q23 -35 42.5 -68t41.5 -67q23 41 46.5 78.5 t48.5 78.5l221 363q20 33 38.5 64.5t39.5 64.5h-95q-18 0 -18 20.5t18 20.5h213q20 0 20.5 -20.5t-20.5 -20.5h-71l-99 -164l-225 -371q-23 -39 -46 -76.5t-48 -76.5q41 -66 80 -131.5t80 -130.5l221 -363q23 -35 42 -68.5t40 -68.5h78q20 0 20 -19.5t-20 -19.5h-213 q-18 0 -18.5 19.5t18.5 19.5h88l-80 131l-225 371q-35 57 -68 110.5t-66 108.5l-147 -242l-221 -362q-16 -29 -33.5 -58.5t-36.5 -58.5h86q18 0 18.5 -19.5t-18.5 -19.5h-213q-20 0 -20 19.5z" />
<glyph unicode="y" horiz-adv-x="1269" d="M78 1514.5q0 19.5 20 19.5h213q20 0 20.5 -19.5t-20.5 -19.5h-82q10 -16 19.5 -33.5t19.5 -34.5q59 -104 115.5 -206.5t116.5 -206.5q33 -57 64.5 -114.5t64.5 -117.5l30 54q59 104 115.5 205.5t116.5 205.5q35 61 67.5 122t67.5 120h-94q-20 0 -20.5 19.5t20.5 19.5h213 q20 0 20 -19.5t-20 -19.5h-72l-47 -84q-59 -104 -115.5 -205.5t-115.5 -206.5l-146 -256v-362v-336h88q20 0 20.5 -20.5t-20.5 -20.5h-213q-18 0 -18 20.5t18 20.5h84v360v338l-45 78q-59 104 -115.5 205.5t-115.5 206.5l-148 264q0 2 -1 2t-1 2h-84q-20 0 -20 19.5z" />
<glyph unicode="z" horiz-adv-x="1064" d="M141 31q4 8 35 73.5t79 167t108.5 229.5t124 262t124 262t108.5 230.5t79.5 168t36.5 73.5h-314h-313v-74q0 -20 -19.5 -20t-19.5 20v93q0 20 20 20h9h393h278q12 0 17.5 -10t-0.5 -21q-4 -8 -35 -72.5t-79 -167t-108.5 -230.5t-124 -261t-124 -261t-108.5 -230.5 t-79.5 -168t-35.5 -73.5h53h383h245v74q0 18 20.5 18t20.5 -18v-95q0 -20 -20 -20h-35h-379h-321q-12 0 -18 10q-3 6 -3 12q0 4 2 9z" />
<glyph unicode="{" />
<glyph unicode="|" />
<glyph unicode="}" />
<glyph unicode="~" />
<glyph unicode="&#xad;" horiz-adv-x="2048" />
<glyph unicode="&#xbb;" horiz-adv-x="833" />
<glyph unicode="&#xd3;" horiz-adv-x="1056" d="M82 766q2 252 38 404.5t95 234.5t138 108.5t169 26.5t170 -28.5t138.5 -112.5t92 -237.5t31.5 -401.5q-2 -254 -37.5 -406.5t-95 -234.5t-139.5 -108.5t-170 -26.5t-169 27.5t-137.5 110.5t-92 236.5t-31.5 407.5zM127 766q-2 -233 25.5 -377.5t79 -224.5t123 -107.5 t157.5 -27.5q84 0 155.5 25.5t125 104.5t84 222t32.5 379t-27.5 380t-83 223t-125 105.5t-151.5 26.5t-151.5 -24.5t-124.5 -102.5t-85 -221t-34 -381zM426 1704l195 215q14 14 28.5 0t-0.5 -29l-194 -215q-12 -12 -27.5 1.5t-1.5 27.5z" />
<glyph unicode="&#xf3;" horiz-adv-x="1056" d="M82 766q2 252 38 404.5t95 234.5t138 108.5t169 26.5t170 -28.5t138.5 -112.5t92 -237.5t31.5 -401.5q-2 -254 -37.5 -406.5t-95 -234.5t-139.5 -108.5t-170 -26.5t-169 27.5t-137.5 110.5t-92 236.5t-31.5 407.5zM127 766q-2 -233 25.5 -377.5t79 -224.5t123 -107.5 t157.5 -27.5q84 0 155.5 25.5t125 104.5t84 222t32.5 379t-27.5 380t-83 223t-125 105.5t-151.5 26.5t-151.5 -24.5t-124.5 -102.5t-85 -221t-34 -381zM426 1704l195 215q14 14 28.5 0t-0.5 -29l-194 -215q-12 -12 -27.5 1.5t-1.5 27.5z" />
<glyph unicode="&#x2c6;" />
<glyph unicode="&#x2000;" horiz-adv-x="963" />
<glyph unicode="&#x2001;" horiz-adv-x="1926" />
<glyph unicode="&#x2002;" horiz-adv-x="963" />
<glyph unicode="&#x2003;" horiz-adv-x="1926" />
<glyph unicode="&#x2004;" horiz-adv-x="642" />
<glyph unicode="&#x2005;" horiz-adv-x="481" />
<glyph unicode="&#x2006;" horiz-adv-x="321" />
<glyph unicode="&#x2007;" horiz-adv-x="321" />
<glyph unicode="&#x2008;" horiz-adv-x="240" />
<glyph unicode="&#x2009;" horiz-adv-x="385" />
<glyph unicode="&#x200a;" horiz-adv-x="107" />
<glyph unicode="&#x2010;" horiz-adv-x="2048" />
<glyph unicode="&#x2011;" horiz-adv-x="2048" />
<glyph unicode="&#x2012;" horiz-adv-x="2048" />
<glyph unicode="&#x2013;" horiz-adv-x="866" />
<glyph unicode="&#x2014;" />
<glyph unicode="&#x2018;" horiz-adv-x="413" d="M139 1616q-6 23 15 24q18 6 24 -14l68 -233q3 -23 -15 -25q-23 -6 -24 14z" />
<glyph unicode="&#x2019;" horiz-adv-x="393" d="M137 1393l68 233q6 20 24 14q20 -2 15 -24l-68 -234q-1 -20 -24 -14q-18 2 -15 25z" />
<glyph unicode="&#x201a;" />
<glyph unicode="&#x201c;" horiz-adv-x="518" d="M139 1616q-6 23 15 24q18 6 24 -14l68 -233q3 -23 -15 -25q-23 -6 -24 14zM264 1616q-6 23 15 24q18 6 24 -14l68 -233q3 -23 -15 -25q-23 -6 -24 14z" />
<glyph unicode="&#x201d;" horiz-adv-x="505" d="M137 1393l68 233q6 20 24 14q20 -2 15 -24l-68 -234q-1 -20 -24 -14q-18 2 -15 25zM262 1393l68 233q6 20 24 14q20 -2 15 -24l-68 -234q-2 -20 -25 -14q-18 2 -14 25z" />
<glyph unicode="&#x201e;" />
<glyph unicode="&#x2022;" horiz-adv-x="1040" />
<glyph unicode="&#x2026;" />
<glyph unicode="&#x202f;" horiz-adv-x="385" />
<glyph unicode="&#x2039;" />
<glyph unicode="&#x205f;" horiz-adv-x="481" />
<glyph unicode="&#x20ac;" />
<glyph unicode="&#xe000;" horiz-adv-x="1536" d="M0 0v1536h1536v-1536h-1536z" />
</font>
</defs>
</svg>
